<?xml version="1.0" encoding="UTF-8"?>
<svg id="Layer_1" xmlns="http://www.w3.org/2000/svg" viewBox="0 0 1080 100.57">
  <defs>
    <style>
      .cls-1 {
        fill: #fff;
      }
    </style>
  </defs>
  <polygon class="cls-1" points="207.28 100.57 86.18 100.57 114.75 78.24 159.67 78.24 142.64 56.45 124.59 33.35 38.56 100.57 0 100.57 25.01 81.03 109.98 14.64 124.61 3.2 128.72 0 144.15 19.76 207.28 100.57"/>
  <g>
    <path class="cls-1" d="M309.62,16.76v11.64h-33.62v55.51h-13.32V28.4h-33.52v-11.64h80.46Z"/>
    <path class="cls-1" d="M358.09,86.23c-24.56,0-43.52-11.24-43.52-36.1v-.1c0-23.91,17.92-35.95,43.52-35.95s43.47,12.03,43.47,35.95v.1c0,24.86-18.96,36.1-43.47,36.1ZM358.09,26.27c-17.53,0-30.45,6.73-30.45,23.87s12.87,23.92,30.45,23.92,30.4-6.73,30.4-23.92-12.92-23.87-30.4-23.87Z"/>
    <path class="cls-1" d="M411.45,83.9V16.76h13.07v67.14h-13.07Z"/>
    <path class="cls-1" d="M514.88,16.76v11.64h-33.62v55.51h-13.32V28.4h-33.52v-11.64h80.46Z"/>
    <path class="cls-1" d="M562.61,86.13h-.2c-19.95,0-37.63-6.59-37.63-25.05V16.76h13.07v44.81c0,6.44,7.72,12.08,24.56,12.08h.2c16.74,0,24.51-5.65,24.51-12.08V16.76h13.07v44.32c0,18.62-17.68,25.05-37.58,25.05Z"/>
    <path class="cls-1" d="M694.95,35.63v5.15c0,5.79-1.63,10.05-4.95,13.12,3.37,3.12,5,7.43,5,13.22v16.79h-13.32v-16.79c0-7.28-8.37-7.33-14.21-7.33h-44.02v24.11h-13.27l-.1-67.14,57.04-.1c19.61,0,27.83,5.2,27.83,18.96ZM681.63,40.78v-5.15c0-7.28-8.37-7.33-14.21-7.33h-43.97v19.81h43.97c5.84,0,14.21-.05,14.21-7.33Z"/>
    <path class="cls-1" d="M704.89,83.8V16.86l69.42-.1v11.64h-56.1v16.14l47.68.1v11.54h-47.68v16.09h56.1v11.64l-69.42-.1Z"/>
    <path class="cls-1" d="M784.36,59.74h13.17c.94,11.34,11.29,14.61,30.3,14.61,21.49,0,31-3.02,31-9.11s-14.16-7.72-34.61-9.61c-23.57-2.13-40.01-6.44-40.01-20.7s14.95-20.99,44.32-20.99,43.13,9.11,43.42,26.49h-13.12c-.94-11.34-11.34-14.61-30.3-14.61-21.49,0-31,2.97-31,9.11,0,5.5,12.18,7.38,29.76,9.06,25.45,1.98,44.86,6.19,44.86,21.24s-14.95,20.99-44.32,20.99-43.13-9.01-43.47-26.49Z"/>
    <path class="cls-1" d="M954.74,83.8h-15.89l-34.81-67.19h15.55l27.33,52.83,27.38-52.83h15.5l-35.06,67.19Z"/>
    <path class="cls-1" d="M1075.05,50.33c3.32,3.07,4.95,7.43,4.95,13.12v1.49c0,13.76-8.22,18.96-27.83,18.96l-57.04-.1V16.86l57.04-.1c19.61,0,27.83,5.2,27.83,18.96v1.49c0,5.69-1.63,10.05-4.95,13.12ZM1066.68,37.21v-1.49c0-7.28-8.37-7.33-14.21-7.33h-44.02v16.09h44.02c5.84,0,14.21-.05,14.21-7.28ZM1066.68,64.94v-1.49c0-7.23-8.37-7.28-14.21-7.28h-44.02v16.09h44.02c5.84,0,14.21-.05,14.21-7.33Z"/>
  </g>
</svg>