<?xml version="1.0" encoding="UTF-8"?>
<svg xmlns="http://www.w3.org/2000/svg" viewBox="-5 48 225 180" preserveAspectRatio="xMidYMid meet">
  <g fill="#000000" stroke="none">
    <path d="m 134.66911,69.44034 c -0.47578,0.271875 -1.0875,0.611719 -1.35938,0.747656 -0.27187,0.135938 -1.12148,0.645703 -1.86914,1.121484 -2.31093,1.461328 -2.68476,1.699219 -3.39843,2.039062 -0.37383,0.203907 -1.12149,0.645704 -1.69922,0.985547 -0.54375,0.373828 -1.69922,1.019531 -2.54883,1.427344 -0.84961,0.441797 -2.07305,1.155468 -2.71875,1.597265 -0.6457,0.441797 -1.49531,0.951562 -1.86914,1.121484 -0.37383,0.169922 -1.12148,0.611719 -1.69922,0.985547 -0.54375,0.373828 -1.32539,0.815625 -1.69922,1.019531 -0.37382,0.169922 -0.91757,0.475781 -1.18945,0.679688 -0.78164,0.509765 -8.93789,5.267577 -9.51562,5.539452 -0.27188,0.135937 -0.95157,0.54375 -1.5293,0.917578 -0.54375,0.373828 -1.25742,0.78164 -1.5293,0.917578 -0.54375,0.23789 -8.69999,4.995702 -9.51562,5.539452 -0.27187,0.203906 -0.74766,0.441797 -1.01953,0.577734 -0.27188,0.135938 -1.12149,0.611719 -1.86914,1.0875 -0.74766,0.475781 -1.86914,1.121485 -2.44688,1.461328 -0.61171,0.339844 -1.63125,0.883594 -2.20898,1.223438 -1.0875,0.577734 -3.12656,1.801172 -4.51992,2.718752 -0.37383,0.2039 -0.98555,0.57773 -1.35938,0.74765 -0.37382,0.20391 -1.12148,0.64571 -1.69921,1.01953 -0.54375,0.33985 -1.90313,1.05352 -2.95664,1.59727 -1.12149,0.50976 -1.9711,1.15547 -1.9711,1.46133 0,0.27187 -0.237889,0.81562 -0.509764,1.15547 -0.271875,0.37382 -0.509765,0.88359 -0.509765,1.12148 0,0.23789 -0.713672,1.93711 -1.563281,3.77227 -1.563281,3.29648 -2.141015,4.5539 -3.024609,6.59296 -0.237891,0.61172 -0.951562,2.175 -1.529297,3.50039 -0.577734,1.29141 -1.257421,2.82071 -1.529296,3.39844 -0.237891,0.54375 -0.917578,2.00508 -1.495313,3.22852 -0.577734,1.22343 -1.053515,2.3789 -1.053515,2.58281 0,0.2039 -0.475781,1.22343 -1.019531,2.27695 -0.577735,1.05352 -1.019531,2.07305 -1.019531,2.27695 0,0.20391 -0.713672,1.83516 -1.563281,3.67031 -1.427344,3.09259 -1.937109,4.18009 -3.024609,6.69493 -0.237891,0.54375 -0.747656,1.69922 -1.121484,2.54883 -1.597266,3.50039 -2.446875,5.53945 -2.446875,5.81132 0,0.13594 -0.917578,2.175 -2.039062,4.51993 -2.175,4.5539 -2.480859,6.04921 -1.325391,6.66093 0.54375,0.30586 0.883594,0.27188 1.529297,-0.16992 0.441797,-0.27187 0.815625,-0.71367 0.815625,-0.95156 0,-0.78164 1.529296,-3.63633 1.937109,-3.63633 0.577734,0 0.54375,1.35937 -0.06797,3.97617 -0.373828,1.5293 -0.509765,4.48594 -0.509765,11.14687 -0.03399,8.12227 0.03398,9.1418 0.54375,9.71953 0.305859,0.33985 0.713671,0.64571 0.917577,0.64571 0.169922,0 0.985547,0.44179 1.835156,1.01953 0.815625,0.54375 1.563281,1.01953 1.665235,1.01953 0.06797,0 3.160546,1.80117 6.864842,4.01016 3.670312,2.20898 6.932812,4.14609 7.204687,4.28203 0.54375,0.23789 1.189453,0.6457 3.228511,1.93711 0.74766,0.47578 1.59727,0.98554 1.86915,1.08749 0.27187,0.13594 0.98554,0.54375 1.52929,0.91758 0.57774,0.37383 1.25742,0.78164 1.5293,0.91758 0.27187,0.13594 1.05351,0.61172 1.69922,1.05352 0.6457,0.44179 1.49531,0.95156 1.86914,1.12148 0.37383,0.16992 1.15547,0.61172 1.69922,0.98555 0.57773,0.37383 1.32539,0.81562 1.69921,1.01953 0.37383,0.2039 1.15547,0.6457 1.69922,1.01953 0.57774,0.37383 1.32539,0.81562 1.69922,0.98555 0.37383,0.16992 1.25742,0.71367 1.97109,1.18945 1.66524,1.15547 2.75274,1.12148 4.31602,-0.13594 0.71367,-0.57773 1.39336,-1.01953 1.5293,-1.01953 0.13593,0 1.39336,-0.67969 2.78671,-1.5293 1.35938,-0.84961 2.58282,-1.52929 2.68477,-1.52929 0.068,0 0.78164,-0.40782 1.59727,-0.91758 2.00507,-1.29141 2.65078,-1.69922 3.80624,-2.27695 0.57774,-0.27188 1.80118,-0.98555 2.71875,-1.5293 0.95157,-0.57773 2.00508,-1.18945 2.37891,-1.39336 0.37383,-0.20391 1.15547,-0.6457 1.69922,-0.98555 0.57773,-0.37382 1.80117,-1.0875 2.71875,-1.56328 0.95156,-0.50976 2.175,-1.25742 2.71875,-1.66523 0.57773,-0.40781 1.69922,-1.12149 2.54883,-1.5293 0.84961,-0.40781 2.00507,-1.05351 2.54882,-1.42734 0.57774,-0.33984 1.32539,-0.78164 1.69922,-0.98555 0.37383,-0.16992 0.91758,-0.47578 1.18946,-0.67969 0.81562,-0.54375 7.27265,-4.24804 7.8164,-4.51992 0.27188,-0.13593 0.98555,-0.54375 1.5293,-0.91757 0.57773,-0.37383 1.25742,-0.78165 1.52929,-0.91758 0.54375,-0.27188 7.00078,-3.97617 7.81641,-4.51992 0.27187,-0.20391 0.81562,-0.50977 1.18945,-0.67969 0.37383,-0.20391 1.15547,-0.6457 1.69922,-1.01953 0.57773,-0.37383 1.32539,-0.81563 1.69922,-1.01953 0.37383,-0.20391 1.59726,-0.8836 2.71875,-1.49532 l 2.03906,-1.0875 0.034,-8.80195 0.034,-8.76796 1.56328,-0.84961 c 2.10703,-1.0875 2.10703,-1.56329 0.16992,-7.37461 -0.2039,-0.57774 -0.47578,-1.73321 -0.61172,-2.6168 -0.16992,-0.88359 -0.44179,-1.90312 -0.6457,-2.27695 -0.20391,-0.37383 -0.37383,-1.01953 -0.37383,-1.42735 0,-0.67968 -0.16992,-1.35937 -1.49531,-5.60742 -0.30586,-0.98555 -0.54375,-2.10703 -0.54375,-2.48086 0,-0.40781 -0.16992,-1.0875 -0.40781,-1.49531 -0.20391,-0.40781 -0.50977,-1.35938 -0.64571,-2.10703 -0.33984,-1.7332 -0.95156,-4.11211 -1.39335,-5.4375 -0.20391,-0.57774 -0.4418,-1.63125 -0.57774,-2.37891 -0.23789,-1.32539 -0.40781,-1.90312 -1.5293,-5.47148 -0.30585,-0.98555 -0.54375,-2.10703 -0.54375,-2.48086 0,-0.40781 -0.16992,-1.0875 -0.40781,-1.49531 -0.2039,-0.40781 -0.50976,-1.35938 -0.6457,-2.10703 -0.13594,-0.74766 -0.37383,-1.83516 -0.57774,-2.37891 -0.33984,-0.98555 -0.8496,-3.02461 -1.42734,-5.60742 -0.16992,-0.6457 -0.4418,-1.66523 -0.61172,-2.20898 -0.44179,-1.325394 -1.05351,-3.738284 -1.39336,-5.437503 -0.13593,-0.747656 -0.44179,-1.699218 -0.6457,-2.107031 -0.23789,-0.407812 -0.40781,-1.087499 -0.40781,-1.495312 0,-0.373828 -0.23789,-1.461328 -0.50977,-2.378906 -0.27187,-0.917578 -0.74765,-2.41289 -1.01953,-3.330468 -0.27187,-0.917578 -0.50976,-1.903125 -0.50976,-2.242968 0,-0.54375 -0.20391,-1.257422 -1.49532,-5.471484 -0.30586,-0.985547 -0.54375,-2.107031 -0.54375,-2.548828 0,-0.441797 -0.23789,-1.121484 -0.50976,-1.461328 -0.27188,-0.373828 -0.50977,-1.189453 -0.50977,-1.835156 0,-1.631249 -0.88359,-3.126562 -1.86914,-3.126562 -0.16992,0 -0.71367,0.237891 -1.18945,0.509766 z m 0.6457,5.165624 c 0.20391,0.713672 0.37383,1.563281 0.37383,1.937109 0,0.339844 0.20391,1.325391 0.47578,2.208984 0.57774,1.869141 1.29141,4.485937 2.07305,7.510546 0.78164,3.126562 1.49531,5.67539 2.07304,7.510546 0.2379,0.883593 0.47579,1.971093 0.47579,2.480859 0,0.475781 0.2039,1.359375 0.47578,1.971093 0.44179,1.121485 1.12148,3.364449 1.42734,5.029689 0.16992,0.84961 0.67969,2.71875 1.63125,6.0832 0.30586,0.98555 0.54375,2.03906 0.54375,2.31094 0,0.30586 0.23789,1.25742 0.50977,2.175 0.27187,0.91757 0.74765,2.41289 1.01953,3.33046 0.27187,0.91758 0.50976,2.00508 0.50976,2.44688 0.034,0.4418 0.23789,1.18945 0.50977,1.66523 0.27187,0.47578 0.47578,1.22344 0.50976,1.66524 0,0.74765 0.16993,1.39336 1.49532,5.67539 0.30585,0.98554 0.54375,2.10703 0.54375,2.48086 0,0.40781 0.16992,1.0875 0.40781,1.49531 0.2039,0.40781 0.50976,1.35937 0.6457,2.10703 0.33984,1.7332 0.95156,4.11211 1.39336,5.4375 0.16992,0.54375 0.40781,1.39336 0.47578,1.86914 0.27188,1.35938 2.03906,7.68047 2.6168,9.27774 0.27187,0.78164 0.2039,1.0875 -0.4418,1.76718 -0.4418,0.47578 -0.91758,0.84961 -1.05351,0.84961 -0.13594,0 -1.42735,0.67969 -2.82071,1.5293 -1.42734,0.84961 -2.65078,1.5293 -2.75273,1.5293 -0.068,0 -0.81563,0.44179 -1.63125,1.01953 -0.84961,0.54375 -1.59727,1.01953 -1.69922,1.01953 -0.13594,0 -0.88359,0.44179 -1.69922,1.01953 -0.84961,0.54375 -1.59726,1.01953 -1.69922,1.01953 -0.13593,0 -0.84961,0.40781 -1.66523,0.91758 -2.20898,1.42734 -2.68477,1.7332 -4.35,2.65078 -0.84961,0.47578 -1.97109,1.15547 -2.54883,1.5293 -0.54375,0.37382 -1.32539,0.81562 -1.69922,1.01953 -0.37382,0.2039 -1.12148,0.6457 -1.69921,1.01953 -0.54375,0.37383 -1.35938,0.81562 -1.80118,1.01953 -0.40781,0.16992 -1.63125,0.91758 -2.71875,1.63125 -1.0875,0.71367 -2.175,1.39336 -2.44687,1.5293 -0.27188,0.13593 -0.95156,0.54375 -1.5293,0.91757 -0.54375,0.37383 -1.32539,0.81563 -1.69922,0.98555 -0.37382,0.16992 -1.25742,0.71367 -1.97109,1.18945 -0.71367,0.47578 -1.35937,0.8836 -1.46133,0.8836 -0.068,0 -0.78164,0.40781 -1.59726,0.91757 -2.07305,1.35938 -2.71875,1.73321 -3.46641,2.10704 -0.37383,0.16992 -1.22344,0.67968 -1.86914,1.12148 -0.6457,0.4418 -1.42734,0.91758 -1.69922,1.05352 -0.27187,0.13593 -0.95156,0.54375 -1.52929,0.91757 -0.54375,0.37383 -1.32539,0.81563 -1.69922,0.98555 -0.37383,0.16992 -1.7332,1.01953 -3.0586,1.86914 -1.2914,0.84961 -2.48085,1.56328 -2.58281,1.56328 -0.61172,0 -0.98554,-1.01953 -1.63125,-4.24804 -0.13593,-0.74766 -0.40781,-1.90313 -0.61172,-2.54883 -0.2039,-0.64571 -0.61171,-2.07305 -0.91757,-3.16055 -0.30586,-1.05351 -0.74766,-2.78672 -1.05352,-3.80625 -0.27187,-1.01953 -0.74766,-2.75273 -1.05351,-3.84023 -0.30586,-1.05352 -0.67969,-2.41289 -0.8836,-2.95664 -0.2039,-0.57774 -0.47578,-1.63125 -0.61172,-2.37891 -0.13593,-0.74765 -0.40781,-1.83515 -0.61172,-2.3789 -0.2039,-0.57774 -0.57773,-1.90313 -0.88359,-2.99063 -0.30586,-1.05351 -0.78164,-2.8207 -1.0875,-3.9082 -0.30586,-1.05352 -0.78164,-2.78672 -1.05351,-3.80625 -0.27188,-1.01953 -0.64571,-2.34492 -0.84961,-2.88867 -0.20391,-0.57774 -0.4418,-1.63125 -0.57774,-2.37891 -0.13594,-0.78164 -0.37383,-1.59726 -0.54375,-1.86914 -0.16992,-0.27187 -0.40781,-1.0875 -0.54375,-1.86914 -0.13594,-0.74766 -0.37383,-1.83516 -0.57773,-2.37891 -0.20391,-0.57773 -0.57774,-1.90312 -0.8836,-2.99062 -0.30586,-1.05352 -0.74765,-2.78672 -1.05351,-3.80625 -0.27188,-1.01953 -0.74766,-2.71875 -1.01953,-3.73828 -0.47578,-1.73321 -0.98555,-3.56836 -2.03906,-7.30664 -0.2379,-0.84961 -0.67969,-2.31094 -0.98555,-3.2625 -0.30586,-0.98555 -0.54375,-2.14102 -0.54375,-2.58281 0,-0.4418 -0.23789,-1.12149 -0.50977,-1.49532 -0.27187,-0.33984 -0.50976,-1.12148 -0.50976,-1.66523 0,-0.57773 -0.23789,-1.39336 -0.54375,-1.80117 -0.27188,-0.40781 -0.54375,-1.39336 -0.54375,-2.175 0,-1.0875 0.16992,-1.5293 0.78164,-2.00508 0.44179,-0.33984 0.91758,-0.6457 1.0875,-0.6457 0.13594,0 0.88359,-0.40782 1.69922,-0.91758 0.78164,-0.50977 2.10703,-1.29141 2.95664,-1.7332 2.54882,-1.39336 4.07812,-2.31094 6.28711,-3.738284 0.37382,-0.203906 1.01953,-0.54375 1.42734,-0.713672 0.37383,-0.203906 0.81562,-0.509765 0.95156,-0.679687 0.10195,-0.203906 0.40781,-0.373828 0.67969,-0.373828 0.27187,0 1.12148,-0.441797 1.93711,-0.985547 0.81562,-0.54375 2.07304,-1.32539 2.8207,-1.733203 0.74766,-0.407812 1.83516,-1.019531 2.37891,-1.359375 0.57773,-0.373828 1.69921,-1.053515 2.54882,-1.529296 0.84961,-0.475781 2.07305,-1.189453 2.71875,-1.563281 0.64571,-0.407813 1.86914,-1.0875 2.71875,-1.563281 0.84961,-0.441797 2.00508,-1.121484 2.54883,-1.495312 0.57774,-0.339844 1.32539,-0.781641 1.69922,-0.985547 0.37383,-0.203906 1.15547,-0.645703 1.69922,-1.019531 0.57773,-0.373828 1.25742,-0.781641 1.52929,-0.917578 0.40782,-0.169922 7.64649,-4.383984 9.51563,-5.539453 0.27187,-0.169921 1.12148,-0.645703 1.86914,-1.053515 0.74765,-0.373828 2.00508,-1.155469 2.8207,-1.699219 0.81563,-0.54375 1.5293,-0.985546 1.59727,-0.985546 0.068,0 0.81562,-0.441797 1.59726,-1.019531 1.9711,-1.359375 2.54883,-1.291406 2.95664,0.23789 z M 74.82263,114.29971 c 0.71368,4.14609 0.95157,5.09765 1.32539,5.84531 0.23789,0.40781 0.40782,1.15547 0.40782,1.69922 0.034,0.50976 0.23789,1.32539 0.50976,1.80117 0.27188,0.47578 0.47578,1.32539 0.50977,1.90312 0,0.54375 0.23789,1.32539 0.50976,1.69922 0.27188,0.33985 0.50977,1.0875 0.50977,1.66524 0,0.54375 0.23789,1.46132 0.50976,2.00507 0.27188,0.50977 0.50977,1.35938 0.50977,1.86915 0.034,0.47578 0.23789,1.25742 0.50977,1.7332 0.27187,0.47578 0.47578,1.32539 0.50976,1.90312 0,0.54375 0.23789,1.32539 0.50977,1.69922 0.27187,0.33984 0.50976,1.0875 0.50976,1.66524 0,0.54375 0.23789,1.39336 0.50977,1.86914 0.27187,0.47578 0.50976,1.29141 0.50976,1.86914 0,0.54375 0.23789,1.39336 0.50977,1.86914 0.27187,0.47578 0.50976,1.29141 0.50976,1.86914 0,0.54375 0.23789,1.39336 0.50977,1.86914 0.27187,0.47578 0.47578,1.32539 0.50977,1.90313 0,0.54375 0.23789,1.32539 0.50976,1.69921 0.27188,0.33985 0.50977,1.0875 0.50977,1.66524 0,0.54375 0.23789,1.39336 0.50976,1.86914 0.27188,0.47578 0.50977,1.2914 0.50977,1.86914 0,0.54375 0.23789,1.39336 0.50976,1.86914 0.27188,0.47578 0.47578,1.32539 0.50977,1.90312 0,0.54375 0.23789,1.32539 0.50976,1.69922 0.27188,0.33985 0.50977,1.0875 0.50977,1.66524 0,0.54375 0.23789,1.46132 0.50977,2.00507 0.27187,0.50977 0.50976,1.35938 0.50976,1.86914 0.034,0.47579 0.23789,1.25743 0.50977,1.73321 0.27187,0.47578 0.47578,1.32539 0.50976,1.86914 0,0.57773 0.27188,1.42734 0.61172,1.86914 0.54375,0.78164 0.57773,2.03906 0.47578,15.97265 -0.068,9.3457 -0.2039,15.15703 -0.40781,15.225 -0.20391,0.068 -0.91758,-0.30586 -1.63125,-0.88359 -0.67969,-0.54375 -1.49531,-1.0875 -1.76719,-1.18946 -0.27187,-0.13593 -1.49531,-0.84961 -2.68476,-1.59726 -1.15547,-0.74766 -2.175,-1.35938 -2.24297,-1.35938 -0.068,0 -1.01953,-0.57773 -2.10703,-1.2914 -1.0875,-0.71367 -2.6168,-1.63125 -3.39844,-2.03907 -0.78164,-0.40781 -2.10703,-1.15546 -2.88867,-1.66523 -2.10703,-1.35937 -2.752735,-1.7332 -3.500391,-2.10703 -0.373828,-0.16992 -1.257422,-0.71367 -1.971093,-1.18945 -0.713672,-0.47578 -1.359375,-0.8836 -1.427344,-0.8836 -0.135937,0 -9.855467,-5.70937 -11.04492,-6.49101 -0.271875,-0.16992 -0.747656,-0.40781 -1.053516,-0.50977 -1.053515,-0.37383 -1.32539,-2.14101 -1.121484,-7.95234 0.101953,-3.09258 0.03398,-8.93789 -0.169922,-12.98203 -0.407812,-7.91836 -0.475781,-7.20469 1.223438,-11.14687 0.645703,-1.49531 1.32539,-3.0586 1.937109,-4.48594 0.271875,-0.61172 0.985546,-2.20898 1.597265,-3.50039 0.611719,-1.32539 1.291406,-2.85469 1.529297,-3.39844 0.951562,-2.175 2.276952,-5.16562 2.888671,-6.49101 0.339844,-0.74766 0.645703,-1.46133 0.645703,-1.59727 0,-0.27187 1.937109,-4.51992 2.41289,-5.33555 0.169922,-0.27187 0.407813,-0.74765 0.509766,-1.01953 0.815625,-2.07304 1.699219,-4.18007 2.41289,-5.77734 2.242969,-4.96172 2.820701,-6.42305 2.820701,-7.03476 0,-0.71368 1.39336,-2.24297 1.7332,-1.90313 0.13594,0.16992 0.40782,1.18945 0.61172,2.31094 z m 78.40195,45.4371 c -0.10196,0.98555 -0.20391,4.11211 -0.20391,6.89883 v 5.13164 l -1.76719,0.91758 c -0.98555,0.50976 -2.24297,1.22344 -2.8207,1.59726 -0.54375,0.37383 -1.25742,0.78164 -1.5293,0.91758 -0.27187,0.13594 -1.86914,1.05352 -3.56836,2.07305 -1.66523,1.01953 -3.33046,1.97109 -3.73828,2.14101 -0.37383,0.16993 -1.12148,0.61172 -1.69922,0.98555 -0.54375,0.37383 -1.32539,0.81563 -1.69921,1.01953 -0.37383,0.20391 -0.98555,0.54375 -1.35938,0.78164 -0.37383,0.23789 -1.7332,1.01953 -3.05859,1.76719 -1.29141,0.74766 -2.68477,1.5293 -3.0586,1.76719 -0.37382,0.23789 -0.98554,0.57773 -1.35937,0.78164 -0.37383,0.2039 -1.12148,0.6457 -1.69922,1.01953 -0.54375,0.37383 -1.32539,0.81562 -1.69922,1.01953 -0.37383,0.20391 -1.12148,0.6457 -1.69922,1.01953 -0.54375,0.37383 -1.25742,0.78164 -1.52929,0.91758 -0.57774,0.23789 -7.03477,4.01015 -7.81641,4.51992 -0.27187,0.20391 -0.81562,0.50977 -1.18945,0.67969 -0.37383,0.2039 -1.12148,0.6457 -1.69922,0.98554 -0.54375,0.37383 -1.69922,1.01954 -2.54883,1.42735 -0.84961,0.44179 -2.07304,1.15547 -2.71875,1.59726 -0.6457,0.4418 -1.49531,0.95157 -1.86914,1.12149 -0.37382,0.16992 -1.12148,0.61172 -1.69922,0.98554 -0.54375,0.37383 -1.32539,0.81563 -1.69921,1.01954 -1.01953,0.50976 -1.93711,1.0875 -2.99063,1.9371 -1.76719,1.39336 -1.76719,1.32539 -1.66523,-5.91328 0.10195,-4.28203 0,-7.40859 -0.27188,-8.59804 -0.67968,-3.29649 -0.78164,-4.07813 -0.40781,-4.07813 0.20391,0 0.47578,0.33985 0.61172,0.74766 0.10195,0.40781 0.4418,0.95156 0.67969,1.22344 0.27187,0.23789 0.47578,0.91758 0.47578,1.46133 0,1.66523 1.63125,1.66523 4.24804,-0.034 0.57774,-0.37383 1.32539,-0.81562 1.69922,-1.01953 0.37383,-0.20391 1.15547,-0.6457 1.69922,-1.01953 0.57773,-0.37383 1.32539,-0.81563 1.69922,-0.98555 0.37383,-0.16992 1.22344,-0.67969 1.86914,-1.12148 0.6457,-0.4418 1.42734,-0.91758 1.69922,-1.05352 0.27187,-0.13594 0.98554,-0.54375 1.52929,-0.91758 0.57774,-0.37382 1.32539,-0.81562 1.69922,-1.01953 0.37383,-0.2039 1.15547,-0.6457 1.69922,-1.01953 0.57774,-0.37383 1.25742,-0.78164 1.5293,-0.91758 0.27187,-0.10195 1.12148,-0.61171 1.86914,-1.0875 2.00508,-1.2914 2.65078,-1.66523 3.22851,-1.97109 0.27188,-0.13594 1.9711,-1.12148 3.77227,-2.20898 1.80117,-1.0875 3.39844,-1.9711 3.53437,-1.9711 0.13594,0 0.81563,-0.40781 1.49532,-0.95156 0.67968,-0.50976 1.76718,-1.22344 2.41289,-1.59726 2.88867,-1.59727 3.77226,-2.14102 6.11718,-3.56836 2.92266,-1.80117 6.01524,-3.60235 6.9668,-4.07813 0.37383,-0.2039 1.83515,-1.12148 3.22851,-2.03906 1.39336,-0.91758 2.88867,-1.83516 3.33047,-2.03906 0.40781,-0.16992 0.74766,-0.47578 0.74766,-0.67969 0,-0.16992 0.33984,-0.33984 0.71367,-0.33984 0.67969,0 0.71367,0.13593 0.50977,1.76718 z" style="stroke-width:0.0339844"/>
    <path d="m 130.28513,83.339947 c -0.2379,0.441797 -0.33985,1.121484 -0.20391,1.529297 0.16992,0.577734 0.47578,0.713672 1.5293,0.713672 1.05351,0 1.35937,-0.135938 1.52929,-0.713672 0.37383,-1.0875 -0.44179,-2.344922 -1.52929,-2.344922 -0.61172,0 -1.05352,0.271875 -1.32539,0.815625 z" style="stroke-width:0.0339844"/>
    <path d="m 121.00739,88.33565 c -0.81562,0.441796 -0.78164,2.073046 0.034,2.820702 0.54375,0.509766 0.74765,0.54375 1.46132,0.135938 1.25743,-0.713672 1.63125,-1.597266 1.01954,-2.548828 -0.37383,-0.577734 -1.83516,-0.815625 -2.51485,-0.407812 z" style="stroke-width:0.0339844"/>
    <path d="m 134.36325,92.957524 c -0.95156,0.645703 -0.95156,2.310937 -0.034,2.820703 0.98554,0.509765 2.34492,0.06797 2.58281,-0.84961 0.40781,-1.665234 -1.18946,-2.922655 -2.54883,-1.971093 z" style="stroke-width:0.0339844"/>
    <path d="m 111.83161,93.637211 c -1.56328,0.407813 -0.91758,3.160547 0.67969,3.160547 1.22344,0 1.76719,-0.577735 1.76719,-1.767187 0,-0.713672 -0.20391,-1.053516 -0.8836,-1.291407 -0.47578,-0.203906 -0.88359,-0.305859 -0.91757,-0.305859 -0.034,0.03399 -0.33985,0.101953 -0.64571,0.203906 z" style="stroke-width:0.0339844"/>
    <path d="m 124.60974,98.632914 c -0.10196,0.271875 -0.13594,0.985546 -0.068,1.631246 0.068,0.91758 0.23789,1.15547 1.01953,1.22344 1.12148,0.13594 2.3789,-1.01953 2.07304,-1.86914 -0.44179,-1.32539 -2.61679,-2.039062 -3.0246,-0.985546 z" style="stroke-width:0.0339844"/>
    <path d="m 101.77224,99.61846 c -0.95156,1.01953 -0.95156,1.29141 0.068,2.24297 0.74765,0.71367 0.91758,0.74765 1.80117,0.30586 1.15547,-0.54375 1.35937,-1.39336 0.6457,-2.480861 -0.71367,-1.053515 -1.56328,-1.0875 -2.51484,-0.06797 z" style="stroke-width:0.0339844"/>
    <path d="m 136.70817,103.6626 c -0.81562,0.88359 -0.84961,1.25742 -0.13594,2.24297 0.61172,0.88359 1.39336,0.95156 2.44688,0.2039 0.95156,-0.67968 0.95156,-1.52929 -0.034,-2.44687 -0.98554,-0.95156 -1.39336,-0.95156 -2.27695,0 z" style="stroke-width:0.0339844"/>
    <path d="m 115.23005,103.96846 c -1.29141,0.74766 -0.47578,3.02461 1.0875,3.02461 1.59726,0 2.37891,-2.31094 1.05351,-3.0586 -0.81562,-0.40781 -1.39335,-0.40781 -2.14101,0.034 z" style="stroke-width:0.0339844"/>
    <path d="m 92.59646,104.71612 c -1.01953,0.47578 -1.05352,2.41289 -0.034,2.99062 0.98555,0.50977 2.20899,-0.068 2.48086,-1.22344 0.37383,-1.49531 -0.91757,-2.44687 -2.44687,-1.76718 z" style="stroke-width:0.0339844"/>
    <path d="m 127.12458,109.06611 c -1.25742,0.71368 -0.47578,3.02461 1.01953,3.02461 1.18945,0 1.76719,-0.54375 1.76719,-1.69921 0,-1.5293 -1.35938,-2.175 -2.78672,-1.3254 z" style="stroke-width:0.0339844"/>
    <path d="m 105.68044,109.64385 c -1.15547,1.29141 -0.50976,2.78672 1.18945,2.78672 0.71368,0 1.0875,-0.23789 1.35938,-0.84961 0.84961,-1.90313 -1.18945,-3.43242 -2.54883,-1.93711 z" style="stroke-width:0.0339844"/>
    <path d="m 139.87069,113.58776 c -0.33985,0.6457 -0.20391,2.14101 0.2039,2.14101 1.86914,0 3.39844,-1.86914 2.10703,-2.58281 -0.78164,-0.40781 -1.97109,-0.2039 -2.31093,0.4418 z" style="stroke-width:0.0339844"/>
  </g>
</svg>