<?xml version="1.0" encoding="UTF-8"?>
<svg xmlns="http://www.w3.org/2000/svg" viewBox="40 70 140 120" preserveAspectRatio="xMidYMid meet">
  <g fill="#000000" stroke="none">
    <path d="m 119.43852,86.656666 c -0.81139,0.599722 -1.55222,1.058333 -1.65806,1.058333 -0.0705,0 -1.69333,0.917223 -3.59833,2.046112 -1.905,1.128889 -3.70417,2.151944 -3.98639,2.293055 -0.28222,0.141111 -0.98778,0.564445 -1.5875,0.9525 -0.56444,0.388056 -1.37583,0.846667 -1.76389,1.058334 -0.38805,0.176389 -0.9525,0.493889 -1.23472,0.705555 -0.77611,0.493889 -5.714996,3.351389 -6.349996,3.633612 -0.28222,0.141111 -0.98778,0.564444 -1.5875,0.9525 -0.56445,0.388055 -1.37584,0.846663 -1.76389,1.058333 -0.38806,0.21167 -1.16417,0.67028 -1.76389,1.05833 -0.56444,0.38806 -1.30528,0.81139 -1.5875,0.9525 -0.28222,0.10584 -1.16417,0.635 -1.94028,1.12889 -2.25778,1.44639 -2.78694,1.76389 -3.35139,1.97556 -0.28222,0.14111 -0.77611,0.38805 -1.05833,0.56444 -0.28222,0.17639 -0.84667,0.49389 -1.23472,0.67028 -0.38806,0.21167 -1.16417,0.67028 -1.76389,1.05833 -0.56445,0.38806 -1.30528,0.81139 -1.5875,0.9525 -0.28222,0.14112 -1.62278,0.91723 -2.998613,1.69334 -1.340556,0.81139 -2.716389,1.5875 -2.998611,1.72861 -0.282222,0.14111 -0.846667,0.42333 -1.234722,0.67028 -0.388056,0.24694 -1.340556,0.84666 -2.116667,1.30527 -0.811389,0.49389 -1.763889,1.09362 -2.116667,1.34056 -0.388056,0.21167 -0.9525,0.52917 -1.234722,0.67028 -0.282223,0.14111 -2.434167,1.37583 -4.762501,2.75167 -2.328333,1.37583 -4.480278,2.61055 -4.7625,2.75166 -0.282222,0.14111 -0.987778,0.56445 -1.5875,0.91722 -0.564445,0.38806 -1.728611,1.02306 -2.504722,1.44639 -0.811389,0.38806 -2.257778,1.48167 -3.210278,2.39889 -3.421945,3.28084 -8.43139,7.72584 -10.265834,9.06639 -1.834445,1.37584 -2.010834,1.76389 -1.622778,3.24556 0.176389,0.635 0.493889,0.81139 1.411111,0.81139 0.9525,0 1.481667,-0.28223 2.469444,-1.41111 0.705556,-0.77612 1.446389,-1.41112 1.693334,-1.41112 0.282222,0 0.352778,3.98639 0.282222,14.95778 l -0.141111,14.9225 1.058333,0.77612 c 0.599723,0.38805 1.164167,0.74083 1.270001,0.74083 0.105833,0 0.881944,0.45861 1.728611,1.05833 0.881944,0.56445 1.658055,1.05834 1.763889,1.05834 0.141111,0 0.881944,0.42333 1.728611,0.9525 2.434167,1.5875 2.892778,1.83444 3.633611,2.2225 0.388056,0.21166 1.199445,0.67027 1.763889,1.05833 0.599723,0.38805 1.481667,0.88194 2.046112,1.09361 0.529166,0.21167 0.9525,0.52917 0.9525,0.70556 0,0.17638 0.211666,0.3175 0.458611,0.3175 0.211666,0 1.516944,0.70555 2.822222,1.5875 1.340556,0.88194 2.504723,1.5875 2.610556,1.5875 0.105833,0 0.881944,0.45861 1.763889,1.05833 0.846667,0.56444 1.658056,1.05833 1.763889,1.05833 0.105833,0 1.763889,0.9525 3.668889,2.11667 1.869722,1.16417 3.527778,2.11667 3.633611,2.11667 0.105834,0 0.881941,0.45861 1.728611,1.05833 0.88195,0.56444 1.69333,1.05833 1.83445,1.05833 0.10583,0 0.74083,0.38806 1.34055,0.84667 0.635,0.45861 2.25778,1.41111 3.59833,2.15194 1.37584,0.70556 2.71639,1.55223 3.03389,1.79917 0.81139,0.74083 1.94028,0.59972 2.96334,-0.35278 0.52916,-0.49389 1.76389,-1.30527 2.75166,-1.83444 3.45723,-1.83445 4.05695,-2.18722 7.090836,-4.1275 1.12889,-0.74083 2.39889,-1.51695 2.82222,-1.69333 0.42333,-0.17639 0.98778,-0.45862 1.27,-0.635 2.04611,-1.27 6.06778,-3.56306 6.24417,-3.56306 0.14111,0 0.49389,-0.21167 0.77611,-0.49389 0.3175,-0.24694 1.51694,-0.98778 2.68111,-1.62278 1.16417,-0.635 2.36361,-1.34055 2.64583,-1.55222 0.28223,-0.24694 1.23473,-0.77611 2.11667,-1.19944 0.88194,-0.45862 2.08139,-1.12889 2.64583,-1.48167 0.59973,-0.38806 1.37584,-0.84667 1.76389,-1.05833 0.38806,-0.21167 1.19945,-0.67028 1.76389,-1.02306 0.59972,-0.38806 1.86972,-1.12889 2.82222,-1.65806 0.98778,-0.49388 2.18723,-1.23472 2.68111,-1.5875 0.52917,-0.35277 1.30528,-0.81138 1.76389,-1.02305 0.45862,-0.21167 1.16417,-0.56445 1.55223,-0.81139 2.96333,-1.79917 3.63361,-2.2225 4.23333,-2.64583 0.38806,-0.21167 0.9525,-0.52917 1.23472,-0.67028 0.28222,-0.10583 2.46945,-1.37583 4.83306,-2.82222 2.39889,-1.41112 4.445,-2.57528 4.58611,-2.57528 0.10583,0 0.49389,-0.21167 0.77611,-0.49389 0.67028,-0.56445 5.57389,-3.35139 6.42056,-3.59833 1.23472,-0.42334 1.34055,-1.5875 1.05833,-10.75973 -0.3175,-9.66611 -0.3175,-9.77194 1.55222,-10.58333 0.38806,-0.17639 1.19945,-0.635 1.76389,-1.02306 0.59972,-0.38805 1.41111,-0.84666 1.83445,-1.02305 0.70555,-0.3175 1.51694,-1.37584 1.51694,-2.01084 0,-0.14111 -4.40972,-4.62139 -9.77194,-9.94833 -5.3975,-5.32695 -15.24001,-15.02833 -21.87223,-21.62528 -8.96055,-8.925278 -12.27667,-11.959167 -12.87639,-11.959167 -0.45861,0 -1.48166,0.493889 -2.32833,1.058333 z m 3.70417,4.303889 c 1.55222,1.658056 25.64694,25.541115 32.49083,32.173335 3.175,3.06917 5.67972,5.78556 5.57389,6.0325 -0.0706,0.24695 -0.77611,0.74084 -1.51694,1.12889 -1.65806,0.84667 -3.84528,2.08139 -5.22112,2.92806 -0.56444,0.35277 -1.65805,0.98777 -2.36361,1.37583 -0.74083,0.38806 -2.01083,1.16417 -2.82222,1.69333 -0.84667,0.52917 -2.08139,1.27 -2.75167,1.62278 -0.67027,0.38806 -1.905,1.12889 -2.75166,1.69333 -0.84667,0.56445 -1.5875,1.02306 -1.69334,1.02306 -0.0705,0 -0.81139,0.42333 -1.65805,0.9525 -1.94028,1.27 -2.46945,1.5875 -3.66889,2.25778 -0.52917,0.28222 -2.89278,1.69333 -5.22111,3.10444 -2.32834,1.41111 -4.48028,2.68111 -4.7625,2.8575 -0.28223,0.17639 -2.15195,1.27 -4.16278,2.43417 -2.01083,1.19944 -3.70417,2.15194 -3.81,2.15194 -0.0706,0 -0.81139,0.45862 -1.62278,1.05834 -0.77611,0.56444 -1.5875,1.05833 -1.76389,1.05833 -0.17639,0 -0.84667,0.38806 -1.44639,0.84667 -0.635,0.49389 -1.51694,1.05833 -2.01083,1.27 -0.91722,0.38805 -1.41111,0.67028 -3.70417,2.15194 -0.77611,0.49389 -1.65805,1.02306 -1.94028,1.12889 -0.28222,0.14111 -0.98777,0.56445 -1.5875,0.9525 -0.56444,0.38806 -1.30527,0.81139 -1.5875,0.9525 -0.28222,0.10584 -1.09361,0.67028 -1.79916,1.23472 -0.70556,0.52917 -1.622776,0.98778 -2.046106,0.98778 -0.49389,0 -2.11667,-1.34055 -4.58612,-3.81 -2.11666,-2.08139 -5.57388,-5.43278 -7.69055,-7.47889 -2.11667,-2.04611 -7.54945,-7.26722 -12.10028,-11.64166 -4.515556,-4.37445 -9.454445,-9.13695 -10.971389,-10.58334 -1.516945,-1.44639 -3.457223,-3.31611 -4.339167,-4.1275 -0.881945,-0.81139 -1.622778,-1.62278 -1.622778,-1.79917 0,-0.21166 0.740833,-0.74083 1.693333,-1.16416 1.516945,-0.74084 6.173612,-3.35139 7.47889,-4.19806 0.282222,-0.21167 0.846666,-0.49389 1.234722,-0.67028 0.388055,-0.17639 1.305278,-0.74083 2.046111,-1.23472 0.740834,-0.49389 1.446389,-0.91722 1.552222,-0.91722 0.105834,0 1.234723,-0.635 2.469445,-1.41111 1.234722,-0.81139 2.610556,-1.5875 3.033889,-1.79917 0.846667,-0.38806 1.446389,-0.74083 3.668892,-2.18722 0.84666,-0.52917 1.5875,-0.9525 1.72861,-0.9525 0.10583,0 0.91722,-0.49389 1.79917,-1.05834 0.84666,-0.59972 1.65805,-1.05833 1.76388,-1.05833 0.10584,0 1.72862,-0.91722 3.59834,-2.04611 1.86972,-1.12889 3.63361,-2.15194 3.91583,-2.29306 0.28222,-0.14111 0.84667,-0.45861 1.23472,-0.70555 0.38806,-0.24695 2.2225,-1.30528 4.05695,-2.36361 1.834436,-1.05834 3.668886,-2.11667 4.056936,-2.36361 0.38806,-0.246949 1.02306,-0.599727 1.41111,-0.811393 0.38806,-0.211667 1.19945,-0.670278 1.76389,-1.058334 0.59973,-0.388055 1.30528,-0.811389 1.5875,-0.9525 0.28223,-0.141111 2.46945,-1.411111 4.83306,-2.822222 2.36361,-1.411111 4.445,-2.575278 4.58611,-2.575278 0.14111,0 0.84667,-0.493889 1.51695,-1.058333 1.62277,-1.375834 2.78694,-1.340556 4.1275,0.07055 z M 77.316853,150.50945 c 5.115281,4.93889 9.948331,9.59555 10.759721,10.40694 l 1.48167,1.41112 -0.0353,13.05277 c -0.0353,8.81945 -0.17639,13.05278 -0.42333,13.15862 -0.21167,0.0705 -1.09361,-0.45862 -2.01084,-1.12889 -0.91722,-0.70556 -1.76388,-1.27 -1.94027,-1.27 -0.14111,0 -1.19945,-0.59973 -2.32834,-1.37584 -1.16416,-0.74083 -2.78694,-1.72861 -3.668886,-2.2225 -0.881945,-0.45861 -2.257778,-1.27 -3.104445,-1.79916 -0.811389,-0.52917 -2.081389,-1.30528 -2.822222,-1.69334 -1.552223,-0.84666 -2.2225,-1.23472 -4.1275,-2.46944 -0.776112,-0.49389 -1.658056,-1.02306 -1.940278,-1.12889 -0.282223,-0.14111 -0.987778,-0.56445 -1.5875,-0.9525 -0.564445,-0.38806 -1.375834,-0.84667 -1.76389,-1.05833 -0.388055,-0.21167 -1.164166,-0.67028 -1.763889,-1.05834 -0.564444,-0.38805 -1.375833,-0.84666 -1.763888,-1.05833 -0.388056,-0.21167 -1.164167,-0.67028 -1.763889,-1.05833 -0.564445,-0.38806 -1.305278,-0.81139 -1.587501,-0.9525 -0.282222,-0.14112 -1.693333,-0.91723 -3.104444,-1.76389 -1.446389,-0.84667 -2.716389,-1.51695 -2.822223,-1.51695 -0.141111,0 -0.599722,-0.38805 -1.058333,-0.84666 l -0.776111,-0.84667 V 150.2625 c 0.03528,-7.76111 -0.07056,-14.35805 -0.211667,-14.71083 -0.176389,-0.45861 0.529167,-1.41111 2.892778,-3.77472 l 3.104445,-3.13972 6.561667,6.45583 c 3.598333,3.52778 10.689167,10.4775 15.804445,15.41639 z m 79.798337,-13.6525 c 0,0.24694 -0.17639,0.635 -0.38806,0.84666 -0.28222,0.28223 -0.42333,2.68112 -0.42333,7.12612 0,3.70416 -0.10583,6.84389 -0.21167,6.985 -0.21166,0.28222 -0.45861,0.42333 -3.42194,2.04611 -0.9525,0.49389 -2.18723,1.23472 -2.78695,1.62278 -0.56444,0.35277 -1.30528,0.77611 -1.5875,0.91722 -0.28222,0.14111 -2.82222,1.62278 -5.64444,3.28083 -2.82222,1.65806 -5.36222,3.13972 -5.64445,3.28084 -0.28222,0.14111 -0.98777,0.56444 -1.5875,0.9525 -0.56444,0.38805 -1.30527,0.81138 -1.5875,0.9525 -0.28222,0.14111 -2.04611,1.12888 -3.88055,2.2225 -1.83445,1.09361 -3.59834,2.08138 -3.88056,2.2225 -0.28222,0.14111 -0.98778,0.56444 -1.5875,0.9525 -0.56444,0.38805 -1.37583,0.84666 -1.76389,1.05833 -0.38805,0.21167 -1.41111,0.77611 -2.29305,1.30528 -0.88195,0.49389 -2.04611,1.16416 -2.64584,1.48166 -0.56444,0.3175 -1.72861,1.02306 -2.57528,1.55223 -0.81138,0.52916 -2.08138,1.30527 -2.82222,1.69333 -0.70555,0.38805 -1.76389,1.02305 -2.36361,1.41111 -0.56444,0.35278 -1.30528,0.77611 -1.5875,0.91722 -0.28222,0.14111 -1.62278,0.88195 -2.99861,1.69334 -1.34056,0.77611 -2.71639,1.55222 -2.99861,1.69333 -0.635,0.28222 -1.41111,0.77611 -3.280826,2.08139 -0.77612,0.56444 -1.55223,0.98778 -1.76389,0.98778 -0.17639,0 -0.91723,0.45861 -1.65806,1.05833 -2.36361,1.86972 -2.29306,2.11667 -2.29306,-8.36083 0,-5.22112 -0.0705,-10.16 -0.17638,-11.04195 -0.24695,-2.32833 0.56444,-2.2225 2.78694,0.35278 2.15195,2.46944 2.96333,2.64583 4.974166,1.05833 0.74083,-0.59972 1.44639,-1.05833 1.55222,-1.05833 0.14111,0 0.88194,-0.42333 1.72861,-0.9525 0.81139,-0.52917 2.2225,-1.37583 3.13972,-1.86972 0.91723,-0.49389 3.77473,-2.15195 6.35,-3.73945 2.57528,-1.55222 4.93889,-2.96333 5.22112,-3.10444 0.28222,-0.14111 0.84666,-0.42334 1.23472,-0.67028 0.38805,-0.24695 1.34055,-0.84667 2.11666,-1.30528 0.81139,-0.49389 1.76389,-1.05833 2.11667,-1.30528 0.635,-0.38805 5.15056,-3.10444 7.05556,-4.23333 0.38805,-0.24694 1.02305,-0.59972 1.41111,-0.81139 0.38805,-0.21167 1.19944,-0.67028 1.76389,-1.05833 0.59972,-0.38806 1.30528,-0.81139 1.5875,-0.9525 0.28222,-0.14111 1.09361,-0.635 1.76389,-1.09361 0.67027,-0.45861 1.55222,-0.98778 1.94027,-1.16417 0.38806,-0.17639 1.19945,-0.635 1.76389,-1.02306 0.59973,-0.38805 1.37584,-0.84666 1.76389,-1.05833 0.38806,-0.21167 1.19945,-0.67028 1.76389,-1.05833 0.59972,-0.38806 1.30528,-0.81139 1.5875,-0.9525 0.28222,-0.14111 1.09361,-0.635 1.76389,-1.09361 0.67028,-0.45862 1.55222,-0.98778 1.94028,-1.16417 0.38805,-0.17639 1.19944,-0.635 1.76389,-1.02306 0.59972,-0.38805 1.41111,-0.88194 1.86972,-1.09361 0.42333,-0.24694 0.77611,-0.56444 0.77611,-0.74083 0,-0.14111 0.49389,-0.28222 1.05833,-0.28222 0.635,0 1.05834,0.17639 1.05834,0.45861 z m -64.558336,28.78667 c 0.24694,0.45861 0.24694,0.77611 0,0.91722 -0.52917,0.3175 -1.05833,-0.14111 -1.05833,-0.91722 0,-0.88195 0.56444,-0.88195 1.05833,0 z" style="stroke-width:0.0352778" />
    <path d="m 120.84963,98.686389 c -1.48167,0.564444 -0.88194,3.845281 0.70556,3.845281 0.70555,0 2.01083,-1.69334 1.79916,-2.39889 -0.28222,-1.093613 -1.51694,-1.799169 -2.50472,-1.446391 z" style="stroke-width:0.0352778" />
    <path d="m 109.73713,104.89528 c -0.49389,0.49389 -0.24695,2.8575 0.3175,3.06917 1.97555,0.77611 3.4925,-0.59973 2.68111,-2.43417 -0.3175,-0.67028 -0.67028,-0.88195 -1.5875,-0.88195 -0.67028,0 -1.30528,0.10584 -1.41111,0.24695 z" style="stroke-width:0.0352778" />
    <path d="m 129.6338,107.25889 c -0.59973,0.70556 -0.35278,2.36361 0.38805,2.82222 0.98778,0.59972 2.54,-0.14111 2.68111,-1.30528 0.14111,-1.27 -0.45861,-2.01083 -1.69333,-2.01083 -0.52917,0 -1.16417,0.21167 -1.37583,0.49389 z" style="stroke-width:0.0352778" />
    <path d="m 99.541854,111.03361 c -1.44639,0.81139 -0.35278,3.13972 1.411106,3.13972 0.91722,0 1.16417,-0.17638 1.37584,-0.98777 0.3175,-1.12889 0.17638,-1.905 -0.35278,-2.25778 -0.59972,-0.38806 -1.72861,-0.3175 -2.434166,0.10583 z" style="stroke-width:0.0352778" />
    <path d="m 119.22685,113.32667 c -1.05833,1.02305 -0.38805,2.96333 1.02306,2.96333 1.55222,0 1.94028,-0.35278 1.94028,-1.76389 0,-0.88194 -0.17639,-1.41111 -0.56445,-1.55222 -0.9525,-0.35278 -1.83444,-0.24694 -2.39889,0.35278 z" style="stroke-width:0.0352778" />
    <path d="m 138.91185,116.50167 c -0.3175,1.19944 0.21167,2.75167 0.98778,2.89278 0.28222,0.0705 1.02306,-0.28223 1.55222,-0.77611 l 1.02306,-0.84667 -0.74083,-1.02306 c -0.42334,-0.52916 -1.16417,-1.02305 -1.65806,-1.09361 -0.74083,-0.10583 -0.98778,0.0706 -1.16417,0.84667 z" style="stroke-width:0.0352778" />
    <path d="m 89.099634,117.20722 c -0.88195,0.59973 -0.98778,1.16417 -0.3175,2.01084 0.74083,0.9525 2.08139,1.09361 2.99861,0.24694 0.9525,-0.91722 0.9525,-1.23472 0.0705,-2.11666 -0.84666,-0.84667 -1.69333,-0.88195 -2.75166,-0.14112 z" style="stroke-width:0.0352778" />
    <path d="m 109.20796,119.04167 c -1.19944,0.91722 -0.9525,2.57528 0.38806,3.03389 1.30528,0.45861 2.15194,-0.0705 2.29305,-1.44639 0.10584,-1.09361 -0.635,-2.2225 -1.44639,-2.2225 -0.24694,0 -0.81138,0.3175 -1.23472,0.635 z" style="stroke-width:0.0352778" />
    <path d="m 128.46963,122.46361 c -0.84667,1.86973 0.74083,3.24556 2.57528,2.29306 0.77611,-0.42333 0.91722,-2.08139 0.24694,-2.75167 -0.77611,-0.77611 -2.36361,-0.49389 -2.82222,0.45861 z" style="stroke-width:0.0352778" />
    <path d="m 78.48102,123.48667 c -0.881945,1.62278 1.023054,3.28083 2.751664,2.32833 0.81139,-0.42333 0.9525,-1.41111 0.38806,-2.50472 -0.56445,-1.02306 -2.57528,-0.91722 -3.139724,0.17639 z" style="stroke-width:0.0352778" />
    <path d="m 147.94296,124.61556 c -0.59972,1.5875 0.77612,2.96333 2.43417,2.43417 0.84667,-0.24695 1.23472,-1.72862 0.74084,-2.64584 -0.28223,-0.49389 -0.74084,-0.70555 -1.62278,-0.70555 -0.98778,0 -1.27,0.17638 -1.55223,0.91722 z" style="stroke-width:0.0352778" />
    <path d="m 98.201304,125.42695 c -0.63501,1.19944 -0.42334,2.15194 0.56444,2.50472 1.375826,0.52917 1.834436,0.42333 2.469436,-0.52917 0.49389,-0.77611 0.52917,-1.05833 0.14112,-1.76389 -0.59973,-1.12889 -2.610556,-1.23472 -3.174996,-0.21166 z" style="stroke-width:0.0352778" />
    <path d="m 118.45074,127.86111 c -0.635,0.42334 -0.84667,1.44639 -0.49389,2.36362 0.28222,0.70555 0.56445,0.88194 1.5875,0.88194 1.02306,0 1.30528,-0.17639 1.5875,-0.88194 0.56445,-1.44639 -0.17639,-2.64584 -1.5875,-2.64584 -0.38805,0 -0.88194,0.14111 -1.09361,0.28222 z" style="stroke-width:0.0352778" />
    <path d="m 68.426853,129.09584 c -0.917223,0.67027 -0.458611,2.64583 0.670278,2.92805 1.5875,0.38806 2.116666,0.0706 2.2225,-1.41111 0.141111,-1.44639 -0.282223,-1.97555 -1.552223,-1.97555 -0.388055,0 -0.987778,0.21166 -1.340555,0.45861 z" style="stroke-width:0.0352778" />
    <path d="m 137.99463,130.08361 c -0.74083,0.42334 -0.77611,0.98778 -0.21167,2.25778 0.49389,1.05834 2.01084,1.19945 2.8575,0.24695 1.55223,-1.72861 -0.56444,-3.73945 -2.64583,-2.50473 z" style="stroke-width:0.0352778" />
    <path d="m 88.746854,130.64806 c -0.24694,0.10583 -0.67028,0.59972 -0.91722,1.12889 -0.42334,0.81139 -0.42334,1.02305 0.14111,1.72861 0.88194,1.05833 2.2225,1.02305 2.96333,-0.10583 0.56445,-0.84667 0.56445,-0.9525 -0.14111,-1.94028 -0.74083,-1.02306 -1.12889,-1.19945 -2.04611,-0.81139 z" style="stroke-width:0.0352778" />
    <path d="m 108.11435,133.78778 c -1.02305,0.74083 -0.98778,2.36361 0.0706,3.06917 1.16416,0.77611 2.71639,-0.0706 2.71639,-1.48167 0,-1.5875 -1.55223,-2.43417 -2.78695,-1.5875 z" style="stroke-width:0.0352778" />
    <path d="m 127.90519,135.90445 c -1.16417,0.81139 -1.05834,2.50472 0.17638,2.99861 2.11667,0.77611 3.59834,-1.48167 1.94028,-2.96333 -0.81139,-0.74084 -1.12889,-0.74084 -2.11666,-0.0353 z" style="stroke-width:0.0352778" />
    <path d="m 77.987131,137.03334 c -1.093611,1.19944 -0.493889,3.24555 0.9525,3.24555 1.728613,0 2.575283,-2.15194 1.270003,-3.28083 -0.91723,-0.77611 -1.516947,-0.77611 -2.222503,0.0353 z" style="stroke-width:0.0352778" />
    <path d="m 97.178244,140.42 c -0.91722,1.65806 0.28222,2.96334 2.2225,2.46945 1.093606,-0.24695 1.411106,-1.16417 0.881936,-2.39889 -0.599716,-1.27 -2.469436,-1.30528 -3.104436,-0.0706 z" style="stroke-width:0.0352778" />
    <path d="m 116.89852,142.36028 c -0.42333,0.84667 0.0353,2.32834 0.88194,2.64584 1.62278,0.59972 2.89278,-0.74084 2.39889,-2.54001 -0.14111,-0.635 -0.42333,-0.77611 -1.55222,-0.77611 -0.98778,0 -1.44639,0.17639 -1.72861,0.67028 z" style="stroke-width:0.0352778" />
    <path d="m 87.406294,145.8175 c -0.635,0.45862 -0.91722,1.79917 -0.49388,2.57528 0.49388,0.9525 2.15194,0.91722 3.03388,-0.0353 0.59973,-0.67027 0.59973,-0.81138 0.10584,-1.65805 -0.52917,-0.9525 -1.86972,-1.41111 -2.64584,-0.88195 z" style="stroke-width:0.0352778" />
    <path d="m 107.0913,147.89889 c -1.19945,0.81139 -0.9525,2.64584 0.38805,3.10445 1.30528,0.45861 2.15195,-0.0706 2.29306,-1.44639 0.10583,-1.09361 -0.635,-2.2225 -1.44639,-2.2225 -0.24695,0 -0.81139,0.24694 -1.23472,0.56444 z" style="stroke-width:0.0352778" />
  </g>
</svg>
