<?xml version="1.0" standalone="no"?>
<svg version="1.0" xmlns="http://www.w3.org/2000/svg"
 viewBox="100 0 5600 4800"
 preserveAspectRatio="xMidYMid meet">
<g transform="translate(0.000000,7530.000000) scale(1,-1)"
fill="#000000" stroke="none">
<path d="M3530 6825 c-14 -8 -32 -18 -40 -22 -8 -4 -33 -19 -55 -33 -68 -43
-79 -50 -100 -60 -11 -6 -33 -19 -50 -29 -16 -11 -50 -30 -75 -42 -25 -13 -61
-34 -80 -47 -19 -13 -44 -28 -55 -33 -11 -5 -33 -18 -50 -29 -16 -11 -39 -24
-50 -30 -11 -5 -27 -14 -35 -20 -23 -15 -263 -155 -280 -163 -8 -4 -28 -16
-45 -27 -16 -11 -37 -23 -45 -27 -16 -7 -256 -147 -280 -163 -8 -6 -22 -13
-30 -17 -8 -4 -33 -18 -55 -32 -22 -14 -55 -33 -72 -43 -18 -10 -48 -26 -65
-36 -32 -17 -92 -53 -133 -80 -11 -6 -29 -17 -40 -22 -11 -6 -33 -19 -50 -30
-16 -10 -56 -31 -87 -47 -33 -15 -58 -34 -58 -43 0 -8 -7 -24 -15 -34 -8 -11
-15 -26 -15 -33 0 -7 -21 -57 -46 -111 -46 -97 -63 -134 -89 -194 -7 -18 -28
-64 -45 -103 -17 -38 -37 -83 -45 -100 -7 -16 -27 -59 -44 -95 -17 -36 -31
-70 -31 -76 0 -6 -14 -36 -30 -67 -17 -31 -30 -61 -30 -67 0 -6 -21 -54 -46
-108 -42 -91 -57 -123 -89 -197 -7 -16 -22 -50 -33 -75 -47 -103 -72 -163 -72
-171 0 -4 -27 -64 -60 -133 -64 -134 -73 -178 -39 -196 16 -9 26 -8 45 5 13 8
24 21 24 28 0 23 45 107 57 107 17 0 16 -40 -2 -117 -11 -45 -15 -132 -15
-328 -1 -239 1 -269 16 -286 9 -10 21 -19 27 -19 5 0 29 -13 54 -30 24 -16 46
-30 49 -30 2 0 93 -53 202 -118 108 -65 204 -122 212 -126 16 -7 35 -19 95
-57 22 -14 47 -29 55 -32 8 -4 29 -16 45 -27 17 -11 37 -23 45 -27 8 -4 31
-18 50 -31 19 -13 44 -28 55 -33 11 -5 34 -18 50 -29 17 -11 39 -24 50 -30 11
-6 34 -19 50 -30 17 -11 39 -24 50 -29 11 -5 37 -21 58 -35 49 -34 81 -33 127
4 21 17 41 30 45 30 4 0 41 20 82 45 40 25 76 45 79 45 2 0 23 12 47 27 59 38
78 50 112 67 17 8 53 29 80 45 28 17 59 35 70 41 11 6 34 19 50 29 17 11 53
32 80 46 28 15 64 37 80 49 17 12 50 33 75 45 25 12 59 31 75 42 17 10 39 23
50 29 11 5 27 14 35 20 24 16 214 125 230 133 8 4 29 16 45 27 17 11 37 23 45
27 16 8 206 117 230 133 8 6 24 15 35 20 11 6 34 19 50 30 17 11 39 24 50 30
11 6 47 26 80 44 l60 32 1 259 1 258 46 25 c62 32 62 46 5 217 -6 17 -14 51
-18 77 -5 26 -13 56 -19 67 -6 11 -11 30 -11 42 0 20 -5 40 -44 165 -9 29 -16
62 -16 73 0 12 -5 32 -12 44 -6 12 -15 40 -19 62 -10 51 -28 121 -41 160 -6
17 -13 48 -17 70 -7 39 -12 56 -45 161 -9 29 -16 62 -16 73 0 12 -5 32 -12 44
-6 12 -15 40 -19 62 -4 22 -11 54 -17 70 -10 29 -25 89 -42 165 -5 19 -13 49
-18 65 -13 39 -31 110 -41 160 -4 22 -13 50 -19 62 -7 12 -12 32 -12 44 0 11
-7 43 -15 70 -8 27 -22 71 -30 98 -8 27 -15 56 -15 66 0 16 -6 37 -44 161 -9
29 -16 62 -16 75 0 13 -7 33 -15 43 -8 11 -15 35 -15 54 0 48 -26 92 -55 92
-5 0 -21 -7 -35 -15z m19 -152 c6 -21 11 -46 11 -57 0 -10 6 -39 14 -65 17
-55 38 -132 61 -221 23 -92 44 -167 61 -221 7 -26 14 -58 14 -73 0 -14 6 -40
14 -58 13 -33 33 -99 42 -148 5 -25 20 -80 48 -179 9 -29 16 -60 16 -68 0 -9
7 -37 15 -64 8 -27 22 -71 30 -98 8 -27 15 -59 15 -72 1 -13 7 -35 15 -49 8
-14 14 -36 15 -49 0 -22 5 -41 44 -167 9 -29 16 -62 16 -73 0 -12 5 -32 12
-44 6 -12 15 -40 19 -62 10 -51 28 -121 41 -160 5 -16 12 -41 14 -55 8 -40 60
-226 77 -273 8 -23 6 -32 -13 -52 -13 -14 -27 -25 -31 -25 -4 0 -42 -20 -83
-45 -42 -25 -78 -45 -81 -45 -2 0 -24 -13 -48 -30 -25 -16 -47 -30 -50 -30 -4
0 -26 -13 -50 -30 -25 -16 -47 -30 -50 -30 -4 0 -25 -12 -49 -27 -65 -42 -79
-51 -128 -78 -25 -14 -58 -34 -75 -45 -16 -11 -39 -24 -50 -30 -11 -6 -33 -19
-50 -30 -16 -11 -40 -24 -53 -30 -12 -5 -48 -27 -80 -48 -32 -21 -64 -41 -72
-45 -8 -4 -28 -16 -45 -27 -16 -11 -39 -24 -50 -29 -11 -5 -37 -21 -58 -35
-21 -14 -40 -26 -43 -26 -2 0 -23 -12 -47 -27 -61 -40 -80 -51 -102 -62 -11
-5 -36 -20 -55 -33 -19 -13 -42 -27 -50 -31 -8 -4 -28 -16 -45 -27 -16 -11
-39 -24 -50 -29 -11 -5 -51 -30 -90 -55 -38 -25 -73 -46 -76 -46 -18 0 -29 30
-48 125 -4 22 -12 56 -18 75 -6 19 -18 61 -27 93 -9 31 -22 82 -31 112 -8 30
-22 81 -31 113 -9 31 -20 71 -26 87 -6 17 -14 48 -18 70 -4 22 -12 54 -18 70
-6 17 -17 56 -26 88 -9 31 -23 83 -32 115 -9 31 -23 82 -31 112 -8 30 -19 69
-25 85 -6 17 -13 48 -17 70 -4 23 -11 47 -16 55 -5 8 -12 32 -16 55 -4 22 -11
54 -17 70 -6 17 -17 56 -26 88 -9 31 -22 82 -31 112 -8 30 -22 80 -30 110 -14
51 -29 105 -60 215 -7 25 -20 68 -29 96 -9 29 -16 63 -16 76 0 13 -7 33 -15
44 -8 10 -15 33 -15 49 0 17 -7 41 -16 53 -8 12 -16 41 -16 64 0 32 5 45 23
59 13 10 27 19 32 19 4 0 26 12 50 27 23 15 62 38 87 51 75 41 120 68 185 110
11 6 30 16 42 21 11 6 24 15 28 20 3 6 12 11 20 11 8 0 33 13 57 29 24 16 61
39 83 51 22 12 54 30 70 40 17 11 50 31 75 45 25 14 61 35 80 46 19 12 55 32
80 46 25 13 59 33 75 44 17 10 39 23 50 29 11 6 34 19 50 30 17 11 37 23 45
27 12 5 225 129 280 163 8 5 33 19 55 31 22 11 59 34 83 50 24 16 45 29 47 29
2 0 24 13 47 30 58 40 75 38 87 -7z m-1780 -1168 c21 -122 28 -150 39 -172 7
-12 12 -34 12 -50 1 -15 7 -39 15 -53 8 -14 14 -39 15 -56 0 -16 7 -39 15 -50
8 -10 15 -32 15 -49 0 -16 7 -43 15 -59 8 -15 15 -40 15 -55 1 -14 7 -37 15
-51 8 -14 14 -39 15 -56 0 -16 7 -39 15 -50 8 -10 15 -32 15 -49 0 -16 7 -41
15 -55 8 -14 15 -38 15 -55 0 -16 7 -41 15 -55 8 -14 15 -38 15 -55 0 -16 7
-41 15 -55 8 -14 14 -39 15 -56 0 -16 7 -39 15 -50 8 -10 15 -32 15 -49 0 -16
7 -41 15 -55 8 -14 15 -38 15 -55 0 -16 7 -41 15 -55 8 -14 14 -39 15 -56 0
-16 7 -39 15 -50 8 -10 15 -32 15 -49 0 -16 7 -43 15 -59 8 -15 15 -40 15 -55
1 -14 7 -37 15 -51 8 -14 14 -39 15 -55 0 -17 8 -42 18 -55 16 -23 17 -60 14
-470 -2 -275 -6 -446 -12 -448 -6 -2 -27 9 -48 26 -20 16 -44 32 -52 35 -8 4
-44 25 -79 47 -34 22 -64 40 -66 40 -2 0 -30 17 -62 38 -32 21 -77 48 -100 60
-23 12 -62 34 -85 49 -62 40 -81 51 -103 62 -11 5 -37 21 -58 35 -21 14 -40
26 -42 26 -4 0 -290 168 -325 191 -8 5 -22 12 -31 15 -31 11 -39 63 -33 234 3
91 1 263 -5 382 -12 233 -14 212 36 328 19 44 39 90 57 132 8 18 29 65 47 103
18 39 38 84 45 100 28 64 67 152 85 191 10 22 19 43 19 47 0 8 57 133 71 157
5 8 12 22 15 30 24 61 50 123 71 170 66 146 83 189 83 207 0 21 41 66 51 56 4
-5 12 -35 18 -68z m2307 -1337 c-3 -29 -6 -121 -6 -203 l0 -151 -52 -27 c-29
-15 -66 -36 -83 -47 -16 -11 -37 -23 -45 -27 -8 -4 -55 -31 -105 -61 -49 -30
-98 -58 -110 -63 -11 -5 -33 -18 -50 -29 -16 -11 -39 -24 -50 -30 -11 -6 -29
-16 -40 -23 -11 -7 -51 -30 -90 -52 -38 -22 -79 -45 -90 -52 -11 -7 -29 -17
-40 -23 -11 -6 -33 -19 -50 -30 -16 -11 -39 -24 -50 -30 -11 -6 -33 -19 -50
-30 -16 -11 -37 -23 -45 -27 -17 -7 -207 -118 -230 -133 -8 -6 -24 -15 -35
-20 -11 -6 -33 -19 -50 -29 -16 -11 -50 -30 -75 -42 -25 -13 -61 -34 -80 -47
-19 -13 -44 -28 -55 -33 -11 -5 -33 -18 -50 -29 -16 -11 -39 -24 -50 -30 -30
-15 -57 -32 -88 -57 -52 -41 -52 -39 -49 174 3 126 0 218 -8 253 -20 97 -23
120 -12 120 6 0 14 -10 18 -22 3 -12 13 -28 20 -36 8 -7 14 -27 14 -43 0 -49
48 -49 125 1 17 11 39 24 50 30 11 6 34 19 50 30 17 11 39 24 50 29 11 5 36
20 55 33 19 13 42 27 50 31 8 4 29 16 45 27 17 11 39 24 50 30 11 6 34 19 50
30 17 11 37 23 45 27 8 3 33 18 55 32 59 38 78 49 95 58 8 4 58 33 111 65 53
32 100 58 104 58 4 0 24 12 44 28 20 15 52 36 71 47 85 47 111 63 180 105 86
53 177 106 205 120 11 6 54 33 95 60 41 27 85 54 98 60 12 5 22 14 22 20 0 5
10 10 21 10 20 0 21 -4 15 -52z"/>
<path d="M3401 6416 c-7 -13 -10 -33 -6 -45 5 -17 14 -21 45 -21 31 0 40 4 45 21 11 32 -13 69 -45 69 -18 0 -31 -8 -39 -24z"/>
<path d="M3128 6269 c-24 -13 -23 -61 1 -83 16 -15 22 -16 43 -4 37 21 48 47 30 75 -11 17 -54 24 -74 12z"/>
<path d="M3521 6133 c-28 -19 -28 -68 -1 -83 29 -15 69 -2 76 25 12 49 -35 86 -75 58z"/>
<path d="M2858 6113 c-46 -12 -27 -93 20 -93 36 0 52 17 52 52 0 21 -6 31 -26 38 -14 6 -26 9 -27 9 -1 -1 -10 -3 -19 -6z"/>
<path d="M3234 5966 c-3 -8 -4 -29 -2 -48 2 -27 7 -34 30 -36 33 -4 70 30 61 55 -13 39 -77 60 -89 29z"/>
<path d="M2562 5937 c-28 -30 -28 -38 2 -66 22 -21 27 -22 53 -9 34 16 40 41 19 73 -21 31 -46 32 -74 2z"/>
<path d="M3590 5818 c-24 -26 -25 -37 -4 -66 18 -26 41 -28 72 -6 28 20 28 45 -1 72 -29 28 -41 28 -67 0z"/>
<path d="M2958 5809 c-38 -22 -14 -89 32 -89 47 0 70 68 31 90 -24 12 -41 12 -63 -1z"/>
<path d="M2292 5787 c-30 -14 -31 -71 -1 -88 29 -15 65 2 73 36 11 44 -27 72 -72 52z"/>
<path d="M3308 5659 c-37 -21 -14 -89 30 -89 35 0 52 16 52 50 0 45 -40 64 -82 39z"/>
<path d="M2677 5642 c-34 -38 -15 -82 35 -82 21 0 32 7 40 25 25 56 -35 101 -75 57z"/>
<path d="M2002 5618 c-20 -20 -14 -66 9 -79 45 -24 101 38 69 76 -15 18 -61 20 -78 3z"/>
<path d="M3034 5503 c-6 -5 -14 -23 -17 -40 -5 -26 -2 -35 14 -43 11 -6 34 -8 50 -5 28 6 30 9 27 48 -3 39 -5 42 -33 45 -16 1 -35 -1 -41 -5z"/>
<path d="M2409 5493 c-16 -4 -29 -31 -29 -60 0 -7 11 -20 25 -29 23 -15 27 -15 50 0 32 21 33 59 3 80 -12 9 -25 15 -28 15 -3 -1 -12 -3 -21 -6z"/>
<path d="M3630 5480 c-23 -23 -25 -40 -7 -62 17 -21 38 -27 65 -17 30 11 32 73 3 89 -28 14 -38 13 -61 -10z"/>
<path d="M2746 5331 c-24 -26 -17 -62 16 -80 24 -14 28 -14 47 3 26 24 27 58 3 79 -24 22 -45 21 -66 -2z"/>
<path d="M2106 5314 c-13 -35 -6 -64 18 -74 51 -19 91 23 66 70 -13 25 -75 28 -84 4z"/>
<path d="M3340 5311 c-14 -27 12 -81 40 -81 28 0 61 46 51 73 -12 31 -75 37 -91 8z"/>
<path d="M2462 5168 c-33 -33 1 -94 47 -83 33 8 42 22 39 60 -3 26 -7 30 -38 33 -19 2 -41 -3 -48 -10z"/>
<path d="M3062 5158 c-19 -19 -14 -62 9 -76 27 -17 75 1 85 31 12 39 -63 76 -94 45z"/>
<path d="M3737 5152 c-33 -36 -14 -72 38 -72 55 0 75 45 33 74 -29 21 -51 20 -71 -2z"/>
<path d="M2192 5010 c-29 -27 -28 -56 3 -76 55 -36 106 35 57 79 -24 22 -34 21 -60 -3z"/>
<path d="M2786 4994 c-36 -36 -8 -87 44 -82 32 3 35 6 38 38 5 52 -46 80 -82 44z"/>
<path d="M3456 4986 c-21 -32 -20 -39 3 -60 41 -37 94 -1 75 51 -13 39 -55 43 -78 9z"/>
<path d="M3826 4861 c-44 -48 16 -119 64 -76 24 22 25 38 4 70 -20 30 -45 32 -68 6z"/>
<path d="M2506 4834 c-19 -18 -19 -24 -7 -57 19 -50 72 -44 86 10 12 48 -44 82 -79 47z"/>
<path d="M3177 4843 c-4 -3 -7 -23 -7 -44 0 -42 19 -55 64 -43 21 5 26 12 26 38 0 18 -5 37 -12 44 -13 13 -60 16 -71 5z"/>
<path d="M3542 4702 c-18 -12 -11 -72 9 -85 26 -16 68 0 75 30 4 14 2 33 -3 42 -11 18 -61 26 -81 13z"/>
<path d="M2220 4666 c-16 -21 -9 -56 15 -72 42 -28 97 33 65 72 -7 7 -25 14 -40 14 -15 0 -33 -7 -40 -14z"/>
<path d="M2890 4665 c-18 -22 -4 -64 26 -77 24 -11 29 -9 50 15 28 33 29 40 8 61 -20 20 -68 21 -84 1z"/>
<path d="M3260 4530 c-25 -46 5 -89 53 -76 30 7 46 49 30 75 -16 26 -69 26 -83 1z"/>
<path d="M3937 4532 c-22 -25 -21 -41 4 -68 18 -19 25 -21 44 -12 30 13 38 46 19 75 -18 28 -45 30 -67 5z"/>
<path d="M2645 4522 c-32 -7 -45 -22 -45 -53 0 -34 28 -52 64 -43 28 7 41 34 32 69 -6 25 -21 33 -51 27z"/>
<path d="M2980 4370 c-21 -21 -18 -42 8 -72 21 -24 48 -22 66 4 21 29 20 51 -2 71 -25 22 -48 21 -72 -3z"/>
<path d="M3656 4374 c-22 -21 -20 -50 4 -74 24 -24 29 -24 58 -1 26 23 29 59 5 77 -24 18 -48 17 -67 -2z"/>
<path d="M2337 4353 c-4 -3 -7 -24 -7 -45 0 -45 17 -56 60 -38 55 23 34 90 -28 90 -10 0 -22 -3 -25 -7z"/>
<path d="M2712 4219 c-30 -11 -32 -73 -3 -89 25 -13 67 2 73 27 12 46 -24 79 -70 62z"/>
<path d="M3379 4209 c-20 -20 -23 -36 -13 -63 9 -24 81 -22 89 3 18 57 -36 100 -76 60z"/>
<path d="M3103 4053 c-29 -20 -31 -68 -4 -83 34 -18 61 -12 71 16 14 35 13 41 -10 64 -24 24 -28 24 -57 3z"/>
<path d="M2422 4048 c-13 -13 -16 -47 -4 -64 14 -23 49 -25 73 -5 20 16 22 23 14 47 -8 22 -18 30 -40 32 -17 2 -36 -3 -43 -10z"/>
<path d="M2812 3888 c-7 -7 -12 -24 -12 -38 0 -14 5 -31 12 -38 30 -30 88 1 88 46 0 35 -62 56 -88 30z"/>
<path d="M2536 3721 c-35 -39 -4 -90 47 -77 33 8 43 40 23 71 -20 30 -47 32 -70 6z"/>
</g>
</svg>